<svg width="805" height="590" viewBox="0 0 805 590" fill="none" xmlns="http://www.w3.org/2000/svg">
<path d="M686.369 291.656H531.074V100.333H686.369V291.656Z" fill="#F4F5F9"/>
<path d="M676.004 281.279H520.709V89.9561H676.004V281.279Z" fill="#F4F5F9"/>
<path d="M521.227 280.76H675.486V90.4754H521.227V280.76ZM676.004 281.798H520.709C520.421 281.798 520.19 281.565 520.19 281.279V89.9562C520.19 89.6706 520.421 89.437 520.709 89.437H676.004C676.292 89.437 676.523 89.6706 676.523 89.9562V281.279C676.523 281.565 676.292 281.798 676.004 281.798Z" fill="#1B7A2A"/>
<path d="M656.668 79.5792H519.316C514.361 79.5792 510.344 83.6007 510.344 88.5614V261.918C510.344 266.881 514.361 270.902 519.316 270.902H656.668C661.623 270.902 665.639 266.881 665.639 261.918V88.5614C665.639 83.6007 661.623 79.5792 656.668 79.5792Z" fill="#1B7A2A"/>
<path d="M519.316 79.8388C514.512 79.8388 510.603 83.7516 510.603 88.5613V261.917C510.603 266.73 514.512 270.642 519.316 270.642H656.668C661.472 270.642 665.38 266.73 665.38 261.917V88.5613C665.38 83.7516 661.472 79.8388 656.668 79.8388H519.316ZM656.668 271.162H519.316C514.226 271.162 510.085 267.015 510.085 261.917V88.5613C510.085 83.4661 514.226 79.3196 519.316 79.3196H656.668C661.757 79.3196 665.899 83.4661 665.899 88.5613V261.917C665.899 267.015 661.757 271.162 656.668 271.162Z" fill="#1B7A2A"/>
<path d="M590.359 119.05C566.032 119.05 546.311 138.794 546.311 163.147H634.404C634.404 138.794 614.683 119.05 590.359 119.05Z" fill="#F4F5F9"/>
<path d="M639.059 170.279H541.655C541.368 170.279 541.137 170.048 541.137 169.76C541.137 169.474 541.368 169.24 541.655 169.24H639.059C639.347 169.24 639.578 169.474 639.578 169.76C639.578 170.048 639.347 170.279 639.059 170.279Z" fill="#F4F5F9"/>
<path d="M603.507 120.079C603.22 120.079 602.989 119.845 602.989 119.56V115.935C602.989 112.26 600.004 109.273 596.334 109.273H584.38C580.71 109.273 577.726 112.26 577.726 115.935V119.56C577.726 119.845 577.495 120.079 577.207 120.079C576.922 120.079 576.689 119.845 576.689 119.56V115.935C576.689 111.689 580.14 108.234 584.38 108.234H596.334C600.575 108.234 604.026 111.689 604.026 115.935V119.56C604.026 119.845 603.795 120.079 603.507 120.079Z" fill="#F4F5F9"/>
<path d="M639.059 203.654H541.655V183.407H639.059V203.654Z" fill="#DCE9DE"/>
<path d="M592.968 354.564H537.976L548.494 290.566C549.795 282.655 556.624 276.852 564.631 276.852H586.476C596.567 276.852 604.252 285.914 602.614 295.883L592.968 354.564Z" fill="#F4F5F9"/>
<path d="M538.586 354.045H592.529L602.102 295.8C602.859 291.198 601.562 286.521 598.55 282.964C595.535 279.41 591.134 277.371 586.476 277.371H564.631C556.843 277.371 550.271 282.955 549.005 290.651L538.586 354.045ZM592.968 355.083H537.976C537.822 355.083 537.679 355.017 537.58 354.902C537.483 354.784 537.441 354.63 537.464 354.481L547.982 290.483C549.331 282.282 556.332 276.332 564.631 276.332H586.476C591.438 276.332 596.127 278.504 599.34 282.294C602.55 286.082 603.931 291.066 603.125 295.968L593.479 354.649C593.439 354.899 593.222 355.083 592.968 355.083Z" fill="#1B7A2A"/>
<path d="M609.073 408.436C608.851 408.436 608.646 408.292 608.578 408.07L592.025 354.72C591.94 354.444 592.091 354.153 592.367 354.068C592.64 353.984 592.93 354.137 593.015 354.411L609.568 407.761C609.653 408.037 609.499 408.327 609.226 408.412C609.176 408.429 609.125 408.436 609.073 408.436Z" fill="#1B7A2A"/>
<path d="M586.427 408.436C586.205 408.436 586 408.292 585.932 408.07L569.379 354.72C569.294 354.444 569.445 354.153 569.719 354.068C569.994 353.984 570.284 354.137 570.369 354.411L586.922 407.761C587.007 408.037 586.853 408.327 586.58 408.412C586.53 408.429 586.479 408.436 586.427 408.436Z" fill="#1B7A2A"/>
<path d="M520.704 408.436C520.652 408.436 520.6 408.429 520.551 408.412C520.278 408.327 520.124 408.037 520.209 407.761L536.762 354.411C536.847 354.137 537.137 353.984 537.412 354.068C537.686 354.153 537.837 354.444 537.752 354.72L521.199 408.07C521.131 408.292 520.926 408.436 520.704 408.436Z" fill="#1B7A2A"/>
<path d="M543.35 408.436C543.298 408.436 543.246 408.429 543.197 408.412C542.924 408.327 542.77 408.037 542.855 407.761L559.408 354.411C559.493 354.137 559.783 353.984 560.058 354.068C560.329 354.153 560.483 354.444 560.398 354.72L543.845 408.07C543.777 408.292 543.572 408.436 543.35 408.436Z" fill="#1B7A2A"/>
<path d="M515.382 403.942C515.094 403.942 514.863 403.709 514.863 403.423V354.224C514.863 353.936 515.094 353.705 515.382 353.705C515.667 353.705 515.9 353.936 515.9 354.224V403.423C515.9 403.709 515.667 403.942 515.382 403.942Z" fill="#1B7A2A"/>
<path d="M549.142 408.436H481.621C481.336 408.436 481.102 408.202 481.102 407.917C481.102 407.629 481.336 407.397 481.621 407.397H549.142C549.427 407.397 549.661 407.629 549.661 407.917C549.661 408.202 549.427 408.436 549.142 408.436Z" fill="#1B7A2A"/>
<path d="M575.355 314.961H455.408C450.51 314.961 446.387 318.626 445.805 323.495L440.405 368.677H590.358L584.958 323.495C584.376 318.626 580.251 314.961 575.355 314.961Z" fill="#DCE9DE"/>
<path d="M709.15 433.23H654.157L664.675 369.232C665.977 361.321 672.806 355.515 680.813 355.515H702.658C712.749 355.515 720.434 364.578 718.795 374.549L709.15 433.23Z" fill="#F4F5F9"/>
<path d="M654.768 432.711H708.709L718.284 374.464C719.038 369.862 717.744 365.184 714.732 361.63C711.717 358.073 707.316 356.034 702.658 356.034H680.813C673.025 356.034 666.453 361.62 665.187 369.316L654.768 432.711ZM709.15 433.749H654.157C654.004 433.749 653.86 433.681 653.761 433.565C653.665 433.449 653.622 433.296 653.646 433.145L664.164 369.146C665.512 360.948 672.513 354.996 680.813 354.996H702.658C707.62 354.996 712.308 357.169 715.521 360.957C718.732 364.745 720.113 369.729 719.307 374.633L709.661 433.315C709.621 433.565 709.404 433.749 709.15 433.749Z" fill="#1B7A2A"/>
<path d="M725.254 487.099C725.033 487.099 724.828 486.958 724.759 486.736L708.207 433.383C708.119 433.11 708.273 432.819 708.546 432.734C708.822 432.649 709.112 432.803 709.197 433.074L725.749 486.427C725.834 486.701 725.681 486.991 725.407 487.076C725.358 487.092 725.304 487.099 725.254 487.099Z" fill="#1B7A2A"/>
<path d="M702.608 487.099C702.387 487.099 702.182 486.958 702.113 486.736L685.561 433.383C685.473 433.11 685.627 432.819 685.9 432.734C686.176 432.649 686.466 432.803 686.551 433.074L703.103 486.427C703.188 486.701 703.035 486.991 702.761 487.076C702.712 487.092 702.658 487.099 702.608 487.099Z" fill="#1B7A2A"/>
<path d="M636.886 487.099C636.834 487.099 636.782 487.092 636.73 487.076C636.457 486.991 636.306 486.701 636.391 486.427L652.943 433.074C653.028 432.803 653.318 432.649 653.592 432.734C653.865 432.819 654.018 433.11 653.933 433.383L637.381 486.736C637.312 486.958 637.107 487.099 636.886 487.099Z" fill="#1B7A2A"/>
<path d="M659.532 487.099C659.48 487.099 659.428 487.092 659.376 487.076C659.103 486.991 658.952 486.701 659.037 486.427L675.589 433.074C675.674 432.803 675.964 432.649 676.238 432.734C676.511 432.819 676.664 433.11 676.579 433.383L660.027 486.736C659.958 486.958 659.753 487.099 659.532 487.099Z" fill="#1B7A2A"/>
<path d="M631.563 482.606C631.276 482.606 631.045 482.375 631.045 482.089V432.888C631.045 432.602 631.276 432.369 631.563 432.369C631.848 432.369 632.082 432.602 632.082 432.888V482.089C632.082 482.375 631.848 482.606 631.563 482.606Z" fill="#1B7A2A"/>
<path d="M665.324 487.099H597.803C597.517 487.099 597.284 486.868 597.284 486.58C597.284 486.295 597.517 486.061 597.803 486.061H665.324C665.609 486.061 665.842 486.295 665.842 486.58C665.842 486.868 665.609 487.099 665.324 487.099Z" fill="#1B7A2A"/>
<path d="M691.536 393.627H571.59C566.692 393.627 562.569 397.292 561.987 402.158L556.586 447.343H706.538L701.137 402.158C700.557 397.29 696.432 393.627 691.536 393.627Z" fill="#DCE9DE"/>
<path d="M608.075 441C608.03 441 607.983 440.981 607.939 440.942L571.192 408.22C571.027 408.073 570.954 407.693 571.03 407.374C571.105 407.053 571.3 406.912 571.464 407.059L607.981 439.576L621.417 407.237C621.532 406.964 621.737 406.92 621.878 407.142C622.019 407.364 622.041 407.767 621.927 408.04L608.331 440.764C608.266 440.917 608.172 441 608.075 441Z" fill="#F4F5F9"/>
<path d="M670.075 442C670.03 442 669.983 441.981 669.939 441.942L633.192 409.22C633.027 409.073 632.954 408.693 633.03 408.374C633.105 408.053 633.3 407.912 633.464 408.059L669.981 440.576L683.417 408.237C683.532 407.964 683.737 407.92 683.878 408.142C684.019 408.364 684.041 408.767 683.927 409.04L670.331 441.764C670.266 441.917 670.172 442 670.075 442Z" fill="#F4F5F9"/>
<path d="M540.788 451.595H400.048L404.921 453.871C416.012 459.044 428.1 461.725 440.334 461.725H500.503C512.739 461.725 524.825 459.044 535.916 453.871L540.788 451.595Z" fill="#F4F5F9"/>
<path d="M402.389 452.115L405.14 453.398C416.087 458.508 428.258 461.205 440.334 461.205H500.503C512.581 461.205 524.752 458.508 535.696 453.398L538.45 452.115H402.389ZM500.503 462.244H440.334C428.107 462.244 415.785 459.511 404.702 454.34L399.829 452.067C399.61 451.964 399.49 451.723 399.542 451.485C399.596 451.246 399.806 451.076 400.048 451.076H540.788C541.033 451.076 541.243 451.246 541.295 451.485C541.349 451.723 541.229 451.964 541.007 452.067L536.135 454.34C525.053 459.511 512.732 462.244 500.503 462.244Z" fill="#1B7A2A"/>
<path d="M618.219 474.563C615.654 466.895 608.483 461.725 600.405 461.725H301.598C293.52 461.725 286.349 466.895 283.784 474.563L272.215 509.179H629.788L618.219 474.563Z" fill="#F4F5F9"/>
<path d="M629.788 509.701C629.571 509.701 629.369 509.562 629.298 509.345L617.726 474.728C615.23 467.261 608.269 462.244 600.405 462.244H301.598C293.734 462.244 286.773 467.261 284.277 474.728L272.705 509.345C272.616 509.618 272.321 509.765 272.05 509.673C271.779 509.583 271.633 509.288 271.722 509.017L283.294 474.398C285.932 466.508 293.286 461.205 301.598 461.205H600.405C608.717 461.205 616.071 466.508 618.709 474.398L630.281 509.017C630.373 509.288 630.224 509.583 629.953 509.673C629.899 509.691 629.845 509.701 629.788 509.701Z" fill="#1B7A2A"/>
<path d="M363.11 432.149C355.433 432.149 349.21 425.919 349.21 418.232L350.636 391.515H375.79L377.011 418.232C377.011 425.919 370.788 432.149 363.11 432.149Z" fill="#F4F5F9"/>
<path d="M377.183 461.628H349.038L363.11 454.751L377.183 461.628Z" fill="#F4F5F9"/>
<path d="M367.245 414.057V454.668C367.245 458.274 370.175 461.205 373.777 461.205H387.268C390.867 461.205 393.797 458.274 393.797 454.668V414.057H367.245ZM387.268 462.244H373.777C369.605 462.244 366.208 458.845 366.208 454.668V413.538C366.208 413.253 366.441 413.019 366.726 413.019H394.316C394.603 413.019 394.834 413.253 394.834 413.538V454.668C394.834 458.845 391.44 462.244 387.268 462.244Z" fill="#1B7A2A"/>
<path d="M528.98 507.608C528.947 507.608 528.912 507.605 528.879 507.598L324.47 466.827C324.19 466.773 324.006 466.499 324.063 466.218C324.119 465.937 324.393 465.755 324.673 465.81L528.764 506.515L559.49 466.006C559.665 465.777 559.99 465.732 560.216 465.906C560.445 466.079 560.49 466.404 560.318 466.633L529.393 507.402C529.294 507.532 529.141 507.608 528.98 507.608Z" fill="#DCE9DE"/>
<path d="M306.202 510.421L308.13 358.399L216.497 355.997C216.497 355.997 176.612 391.734 169.948 423.894C165.012 447.718 170.899 481.879 177.903 510.421H306.202Z" fill="#1B7A2A"/>
<path d="M178.107 510.161H305.945L307.868 358.652L216.594 356.259C214.627 358.043 176.635 392.905 170.202 423.946C166.182 443.345 168.841 472.347 178.107 510.161ZM306.456 510.68H177.7L177.652 510.482C168.329 472.498 165.652 443.347 169.694 423.842C176.299 391.965 215.925 356.162 216.324 355.803L216.401 355.735L216.504 355.737L308.394 358.147L308.389 358.404L306.456 510.68Z" fill="#1B7A2A"/>
<path d="M275.107 509.701C274.864 509.701 274.648 509.529 274.598 509.281L261.94 445.495C261.883 445.212 262.067 444.94 262.347 444.884C262.63 444.827 262.901 445.011 262.958 445.292L275.616 509.08C275.671 509.361 275.489 509.635 275.209 509.689C275.173 509.696 275.14 509.701 275.107 509.701Z" fill="#1B7A2A"/>
<path d="M405.852 279.677C405.852 279.677 433.052 246.844 445.586 241.943C458.122 237.043 455.675 244.048 449.548 248.586C449.548 248.586 443.078 253.433 447.681 255.546C448.74 256.029 449.932 256.119 451.076 255.897C457.08 254.734 481.8 250.363 484.735 256.674C484.735 256.674 492.893 257.12 493.226 261.401C493.407 263.723 491.929 264.79 491.929 264.79C491.929 264.79 495.753 271.004 484.32 271.924C484.32 271.924 486.031 277.255 479.077 277.64C472.121 278.022 455.642 278.995 425.544 301.58L405.852 279.677Z" fill="#F4F5F9"/>
<path d="M406.538 279.665L425.613 300.879C455.68 278.414 472.044 277.508 479.049 277.121C481.192 277.003 482.658 276.391 483.41 275.306C484.381 273.899 483.832 272.101 483.825 272.082C483.778 271.931 483.802 271.766 483.891 271.636C483.978 271.504 484.122 271.421 484.278 271.407C488.304 271.084 490.876 270.036 491.715 268.377C492.523 266.779 491.498 265.08 491.488 265.061C491.347 264.83 491.406 264.528 491.628 264.37C491.675 264.334 492.865 263.423 492.71 261.441C492.415 257.655 484.784 257.195 484.707 257.193C484.516 257.181 484.346 257.065 484.266 256.893C482.092 252.22 465.08 253.709 451.175 256.407C449.86 256.659 448.577 256.527 447.467 256.018C446.281 255.475 445.628 254.703 445.525 253.724C445.258 251.229 448.829 248.475 449.237 248.171C452.764 245.558 454.546 242.514 453.94 241.416C453.461 240.548 451.066 240.359 445.774 242.426C434.191 246.955 409.485 276.151 406.538 279.665ZM425.544 302.099C425.401 302.099 425.259 302.04 425.158 301.927L405.468 280.026C405.296 279.835 405.289 279.544 405.454 279.346C406.569 278.001 432.883 246.353 445.397 241.461C450.72 239.38 453.9 239.195 454.847 240.914C455.965 242.938 453.11 246.594 449.855 249.004C448.881 249.735 446.383 251.994 446.555 253.615C446.621 254.21 447.059 254.689 447.898 255.074C448.811 255.491 449.876 255.6 450.977 255.387C458.131 254 481.468 250.016 485.06 256.176C486.602 256.305 493.414 257.12 493.744 261.361C493.891 263.239 493.063 264.393 492.573 264.905C492.905 265.625 493.452 267.242 492.639 268.846C491.661 270.782 489.075 271.971 484.954 272.389C485.082 273.189 485.136 274.624 484.268 275.886C483.328 277.255 481.59 278.02 479.106 278.157C472.166 278.541 455.915 279.438 425.856 301.995C425.761 302.063 425.653 302.099 425.544 302.099Z" fill="#1B7A2A"/>
<path d="M452.544 260.82C452.299 260.82 452.085 260.648 452.035 260.4C451.981 260.119 452.163 259.845 452.445 259.791C452.627 259.756 470.82 256.211 484.735 256.154C485.022 256.154 485.254 256.386 485.254 256.671C485.256 256.959 485.025 257.19 484.737 257.193C470.921 257.249 452.825 260.773 452.643 260.808C452.61 260.815 452.577 260.82 452.544 260.82Z" fill="#1B7A2A"/>
<path d="M455.161 266.732C454.911 266.732 454.692 266.55 454.649 266.298C454.602 266.014 454.796 265.748 455.076 265.701C458.581 265.125 489.4 260.195 492.358 264.495C492.519 264.731 492.46 265.054 492.224 265.217C491.988 265.38 491.665 265.321 491.503 265.085C489.558 262.255 468.232 264.589 455.246 266.725C455.217 266.73 455.189 266.732 455.161 266.732Z" fill="#1B7A2A"/>
<path d="M456.936 272.641C456.691 272.641 456.472 272.467 456.427 272.217C456.373 271.933 456.559 271.664 456.842 271.612C461.224 270.798 483.167 266.987 484.81 271.756C484.902 272.028 484.758 272.323 484.49 272.415C484.219 272.509 483.924 272.365 483.83 272.094C482.785 269.059 466.839 270.815 457.03 272.632C456.997 272.639 456.967 272.641 456.936 272.641Z" fill="#1B7A2A"/>
<path d="M427.694 275.046C427.548 275.046 427.402 274.985 427.301 274.862C427.114 274.643 427.14 274.317 427.359 274.13C433.278 269.113 442.316 267.914 449.336 271.218C449.595 271.341 449.706 271.65 449.586 271.91C449.463 272.169 449.155 272.28 448.895 272.157C442.231 269.021 433.651 270.159 428.029 274.923C427.932 275.006 427.812 275.046 427.694 275.046Z" fill="#1B7A2A"/>
<path d="M216.497 355.997L300.5 358.198L309.285 331.054C309.285 331.054 299.033 243.281 288.093 242.204L199.669 233.673C191.037 232.823 88.9644 326.631 105.92 341.504C120.765 354.526 197.068 421.111 202.683 425.421C208.298 429.728 206.01 421.572 200.396 414.897C200.396 414.897 212.985 429.128 216.329 427.866C219.674 426.603 211.01 416.913 211.01 416.913C211.01 416.913 221.085 426.879 224.217 425.095C227.349 423.311 212.765 404.105 212.765 404.105C212.765 404.105 227.138 418.142 229.767 416.913C232.397 415.686 214.052 394.944 214.052 394.944L138.976 315.154C138.976 315.154 160.204 294.441 178.608 283.283L216.497 355.997Z" fill="#F4F5F9"/>
<path d="M413.105 270.883L364.506 314.352L316.182 256.973C309.115 248.581 299.033 243.281 288.093 242.204L199.669 233.675C191.037 232.823 182.365 234.799 174.952 239.287C159.103 248.881 121.349 266.567 100.829 289.657C80.5194 312.511 88.5253 326.91 105.481 341.782C111.439 347.01 127.738 360.587 144.952 375.58L179.667 358.399L140.203 314.878C140.203 314.878 160.204 295.727 178.608 284.569L216.497 355.997L307.965 362.314L309.285 331.054C309.285 331.054 345.799 371.57 371.629 367.034C397.465 362.498 436.11 296.626 436.11 296.626L413.105 270.883Z" fill="#F4F5F9"/>
<path d="M144.952 376.099C144.83 376.099 144.708 376.054 144.612 375.972C134.276 366.968 124.079 358.317 116.634 351.996C111.543 347.675 107.522 344.263 105.139 342.172C93.8722 332.29 88.8402 324.453 88.3133 315.971C87.8054 307.789 91.7724 299.069 100.442 289.312C116.682 271.039 144.002 255.959 162.08 245.978C167.049 243.236 171.341 240.866 174.684 238.844C182.151 234.322 191.044 232.302 199.72 233.159L288.143 241.688C299.283 242.785 309.382 248.095 316.578 256.638L364.558 313.609L412.759 270.496C412.971 270.305 413.301 270.322 413.492 270.536L436.496 296.279C436.645 296.447 436.671 296.695 436.555 296.888C436.458 297.053 426.732 313.578 413.97 330.443C396.781 353.158 382.567 365.64 371.719 367.544C370.324 367.79 368.874 367.912 367.377 367.912C357.241 367.915 344.849 362.293 330.453 351.154C320.34 343.331 312.302 335.035 309.749 332.319L308.484 362.336C308.472 362.624 308.231 362.848 307.944 362.834C307.658 362.822 307.435 362.579 307.449 362.293L308.766 331.033C308.776 330.82 308.91 330.636 309.108 330.565C309.306 330.494 309.528 330.549 309.669 330.705C310.032 331.108 346.282 370.954 371.54 366.522C395.916 362.244 432.479 301.702 435.468 296.687L413.063 271.615L364.85 314.739C364.746 314.834 364.61 314.878 364.468 314.869C364.329 314.859 364.199 314.793 364.107 314.687L315.786 257.309C308.764 248.971 298.913 243.79 288.041 242.721L199.619 234.19C191.162 233.359 182.497 235.325 175.221 239.731C171.86 241.766 167.56 244.14 162.581 246.887C144.565 256.832 117.339 271.86 101.216 290.004C92.7405 299.541 88.8581 308.013 89.3484 315.907C89.8564 324.087 94.7835 331.71 105.823 341.393C108.199 343.477 112.217 346.887 117.305 351.206C124.689 357.472 134.781 366.036 145.032 374.962L178.821 358.239L139.819 315.228C139.631 315.02 139.642 314.699 139.845 314.503C140.045 314.312 160.097 295.187 178.34 284.125C178.462 284.05 178.609 284.031 178.746 284.069C178.884 284.106 178.999 284.198 179.066 284.326L216.955 355.754C217.089 356.006 216.993 356.32 216.74 356.454C216.487 356.589 216.173 356.492 216.039 356.24L178.408 285.298C161.749 295.507 143.709 312.287 140.928 314.907L180.05 358.05C180.16 358.17 180.206 358.335 180.176 358.496C180.146 358.656 180.042 358.793 179.896 358.864L145.182 376.045C145.109 376.08 145.03 376.099 144.952 376.099Z" fill="#1B7A2A"/>
<path d="M216.497 356.516C216.31 356.516 216.13 356.414 216.037 356.237L203.031 331.276C202.899 331.021 202.997 330.707 203.251 330.575C203.507 330.442 203.818 330.542 203.951 330.796L216.957 355.756C217.089 356.011 216.99 356.325 216.737 356.457C216.66 356.497 216.578 356.516 216.497 356.516Z" fill="#1B7A2A"/>
<path d="M196.861 377.192C196.723 377.192 196.585 377.137 196.484 377.029L179.289 358.755C179.093 358.548 179.102 358.217 179.311 358.021C179.52 357.825 179.848 357.835 180.044 358.043L197.238 376.316C197.435 376.526 197.425 376.854 197.217 377.05C197.116 377.144 196.989 377.192 196.861 377.192Z" fill="#1B7A2A"/>
<path d="M174.638 401.901C174.517 401.901 174.396 401.861 174.298 401.776C165.879 394.476 155.89 385.794 144.612 375.972C144.396 375.783 144.373 375.455 144.561 375.24C144.749 375.023 145.076 374.999 145.292 375.188C156.57 385.01 166.558 393.693 174.977 400.99C175.194 401.179 175.217 401.507 175.03 401.722C174.927 401.842 174.783 401.901 174.638 401.901Z" fill="#1B7A2A"/>
<path d="M178.609 283.802C178.445 283.802 178.285 283.724 178.184 283.58C178.02 283.346 178.076 283.023 178.311 282.858L195.715 270.628C195.95 270.463 196.273 270.52 196.437 270.753C196.602 270.989 196.545 271.313 196.311 271.478L178.906 283.707C178.815 283.771 178.712 283.802 178.609 283.802Z" fill="#1B7A2A"/>
<path d="M309.285 331.573C309.266 331.573 309.247 331.571 309.228 331.571C308.946 331.54 308.738 331.283 308.769 331L310.82 311.593C310.834 311.471 310.89 311.355 310.98 311.27C316.713 305.887 319.426 300.02 319.044 293.832C318.271 281.284 304.988 271.443 304.853 271.346C304.622 271.176 304.57 270.853 304.74 270.621C304.908 270.388 305.233 270.338 305.464 270.508C306.027 270.919 319.277 280.736 320.079 293.768C320.477 300.227 317.703 306.323 311.831 311.895L309.799 331.108C309.773 331.375 309.547 331.573 309.285 331.573Z" fill="#1B7A2A"/>
<path d="M233.51 267.697C233.459 267.697 233.408 267.69 233.358 267.676C233.191 267.624 233.061 267.492 233.012 267.324L225.045 239.866C224.965 239.59 225.123 239.302 225.398 239.221C225.676 239.144 225.96 239.302 226.04 239.575L233.788 266.274L248.301 254.205C248.459 254.073 248.68 254.049 248.864 254.141L262.682 261.07C262.937 261.198 263.041 261.509 262.913 261.766C262.784 262.021 262.475 262.128 262.216 261.998L248.704 255.22L233.841 267.579C233.747 267.657 233.63 267.697 233.51 267.697Z" fill="#1B7A2A"/>
<path d="M267.088 262.052C267.024 262.052 266.958 262.04 266.895 262.014C266.631 261.908 266.501 261.606 266.607 261.339L270.709 251.076C270.782 250.892 270.951 250.767 271.147 250.752C271.35 250.736 271.531 250.833 271.633 251.003L276.317 258.817L273.497 243.406C273.448 243.125 273.634 242.853 273.914 242.802C274.197 242.754 274.466 242.938 274.518 243.219L277.851 261.441C277.896 261.686 277.759 261.929 277.523 262.019C277.29 262.106 277.024 262.017 276.896 261.8L271.281 252.433L267.569 261.726C267.489 261.929 267.293 262.052 267.088 262.052Z" fill="#1B7A2A"/>
<path d="M185.393 198.999C176.575 184.813 177.248 166.678 185.148 152.057C193.049 137.439 207.512 126.228 223.833 119.391C231.518 116.171 239.835 113.819 248.302 114.011C256.772 114.199 265.424 117.204 270.746 123.166C276.068 129.129 277.324 138.22 272.576 144.566C279.191 143.848 285.224 149.171 286.592 155.073C287.955 160.976 285.716 167.084 282.675 172.453C273.407 188.81 255.912 200.904 236.381 205.611C217.854 210.082 197.025 217.704 185.393 198.999Z" fill="#1B7A2A"/>
<path d="M245.969 203.564L231.32 236.895L264.99 259.239L263.877 238.263L268.354 211.357L245.969 203.564Z" fill="#F4F5F9"/>
<path d="M231.97 236.703L264.417 258.236L263.359 238.292C263.356 238.254 263.359 238.216 263.366 238.178L267.771 211.704L246.252 204.211L231.97 236.703ZM264.99 259.758C264.889 259.758 264.79 259.73 264.702 259.673L231.033 237.326C230.823 237.187 230.743 236.916 230.845 236.684L245.495 203.354C245.604 203.106 245.884 202.984 246.139 203.073L268.526 210.868C268.764 210.951 268.908 211.194 268.865 211.444L264.398 238.292L265.506 259.211C265.518 259.409 265.417 259.593 265.247 259.69C265.167 259.737 265.077 259.758 264.99 259.758Z" fill="#1B7A2A"/>
<path d="M245.969 197.135C245.969 197.135 242.316 182.26 233.769 189.203C229.229 192.892 233.661 209.83 245.969 208.787C245.969 208.787 261.199 225.205 277.391 219.428C290.797 214.642 279.987 172.575 279.987 172.575C279.987 172.575 265.992 165.139 257.652 176.625C249.312 188.111 259.285 193.652 245.969 197.135Z" fill="#F4F5F9"/>
<path d="M245.969 208.268C246.113 208.268 246.252 208.329 246.349 208.433C246.5 208.596 261.541 224.533 277.217 218.94C289.536 214.543 280.364 176.247 279.544 172.931C277.759 172.046 265.608 166.555 258.071 176.932C254.526 181.812 254.375 185.579 254.255 188.604C254.095 192.651 253.979 195.576 246.101 197.638C245.967 197.674 245.826 197.652 245.705 197.582C245.585 197.511 245.5 197.395 245.467 197.261C245.448 197.183 243.504 189.47 239.381 188.087C237.776 187.547 235.998 188.061 234.095 189.607C232.195 191.151 232.031 195.653 233.723 199.854C234.585 201.999 238.014 208.94 245.927 208.27C245.941 208.268 245.955 208.268 245.969 208.268ZM270.303 221.165C257.831 221.167 247.247 210.835 245.767 209.323C240.057 209.707 235.208 206.323 232.761 200.244C230.847 195.488 231.133 190.676 233.442 188.802C235.642 187.013 237.752 186.442 239.713 187.103C243.751 188.46 245.804 194.65 246.335 196.498C252.977 194.655 253.069 192.34 253.22 188.564C253.345 185.397 253.501 181.458 257.232 176.32C265.74 164.605 280.088 172.039 280.232 172.117C280.359 172.186 280.453 172.304 280.491 172.445C280.937 174.182 291.261 215.029 277.566 219.917C275.11 220.792 272.672 221.165 270.303 221.165Z" fill="#1B7A2A"/>
<path d="M243.994 204.173C243.836 204.173 243.683 204.102 243.579 203.968C242.37 202.372 240.663 201.124 238.77 200.454C238.502 200.357 238.36 200.06 238.454 199.791C238.551 199.519 238.846 199.378 239.117 199.474C241.198 200.211 243.075 201.584 244.406 203.34C244.579 203.569 244.534 203.895 244.305 204.069C244.213 204.14 244.102 204.173 243.994 204.173Z" fill="#1B7A2A"/>
<path d="M449.115 221.179C448.829 221.179 448.596 220.946 448.596 220.66V170.208C448.596 169.922 448.829 169.689 449.115 169.689H501.262C501.549 169.689 501.78 169.922 501.78 170.208C501.78 170.493 501.549 170.727 501.262 170.727H449.633V220.66C449.633 220.946 449.402 221.179 449.115 221.179Z" fill="#1B7A2A"/>
<path d="M495.075 361C495.03 361 494.983 360.981 494.939 360.942L458.192 328.22C458.027 328.073 457.954 327.693 458.03 327.374C458.105 327.053 458.3 326.912 458.464 327.059L494.981 359.576L508.417 327.237C508.532 326.964 508.737 326.92 508.878 327.142C509.019 327.364 509.041 327.767 508.927 328.04L495.331 360.764C495.266 360.917 495.172 361 495.075 361Z" fill="#F4F5F9"/>
<path d="M557.075 362C557.03 362 556.983 361.981 556.939 361.942L520.192 329.22C520.027 329.073 519.954 328.693 520.03 328.374C520.105 328.053 520.3 327.912 520.464 328.059L556.981 360.576L570.417 328.237C570.532 327.964 570.737 327.92 570.878 328.142C571.019 328.364 571.041 328.767 570.927 329.04L557.331 361.764C557.266 361.917 557.172 362 557.075 362Z" fill="#F4F5F9"/>
</svg>
