<?xml version="1.0" standalone="no"?>
<!DOCTYPE svg PUBLIC "-//W3C//DTD SVG 20010904//EN"
 "http://www.w3.org/TR/2001/REC-SVG-20010904/DTD/svg10.dtd">
<svg version="1.0" xmlns="http://www.w3.org/2000/svg"
 width="356.000000pt" height="419.000000pt" viewBox="0 0 356.000000 419.000000"
 preserveAspectRatio="xMidYMid meet">

<g transform="translate(0.000000,419.000000) scale(0.100000,-0.100000)"
fill="#000000" stroke="none">
<path d="M1315 3652 c-73 -34 -125 -115 -125 -192 0 -46 46 -127 88 -155 143
-94 326 15 310 186 -13 129 -158 215 -273 161z"/>
<path d="M1662 3638 c-8 -8 -12 -61 -12 -174 0 -138 2 -163 16 -168 9 -3 85
-6 169 -6 142 0 155 2 165 19 5 11 10 84 10 165 0 118 -3 147 -16 160 -13 13
-43 16 -168 16 -105 0 -156 -4 -164 -12z"/>
<path d="M2092 3638 c-8 -8 -12 -60 -12 -168 0 -108 4 -160 12 -168 17 -17
319 -17 336 0 17 17 17 319 0 336 -8 8 -60 12 -168 12 -108 0 -160 -4 -168
-12z"/>
<path d="M1222 3198 c-14 -14 -17 -304 -4 -326 7 -9 49 -12 178 -10 l169 3 0
170 0 170 -165 3 c-120 2 -169 -1 -178 -10z"/>
<path d="M1654 3197 c-2 -7 -3 -85 -2 -172 l3 -160 165 -3 c146 -2 166 -1 177
15 16 21 18 285 3 314 -10 18 -23 19 -176 19 -125 0 -166 -3 -170 -13z"/>
<path d="M1222 2768 c-17 -17 -17 -319 0 -336 17 -17 319 -17 336 0 17 17 17
319 0 336 -8 8 -60 12 -168 12 -108 0 -160 -4 -168 -12z"/>
<path d="M1662 2768 c-8 -8 -12 -61 -12 -174 0 -138 2 -163 16 -168 9 -3 85
-6 169 -6 142 0 155 2 165 19 5 11 10 84 10 165 0 118 -3 147 -16 160 -13 13
-43 16 -168 16 -105 0 -156 -4 -164 -12z"/>
<path d="M2092 2768 c-8 -8 -12 -60 -12 -168 0 -108 4 -160 12 -168 17 -17
319 -17 336 0 17 17 17 319 0 336 -8 8 -60 12 -168 12 -108 0 -160 -4 -168
-12z"/>
<path d="M1222 2328 c-15 -15 -17 -305 -2 -328 7 -12 39 -16 159 -18 97 -2
157 0 171 8 20 11 20 17 18 178 l-3 167 -165 3 c-120 2 -169 -1 -178 -10z"/>
<path d="M1657 2333 c-4 -3 -7 -80 -7 -169 0 -151 1 -164 19 -174 11 -5 83
-10 160 -10 128 0 143 2 161 20 18 18 20 33 20 161 0 77 -5 149 -10 160 -10
18 -23 19 -174 19 -89 0 -166 -3 -169 -7z"/>
<path d="M1145 1725 c-22 -8 -41 -15 -43 -15 -2 0 -10 -16 -18 -36 -27 -65 -5
-107 86 -157 55 -31 69 -50 51 -71 -17 -20 -71 -21 -116 -2 l-35 15 0 -39 c0
-37 2 -40 38 -49 110 -31 201 15 202 101 0 36 -42 84 -100 113 -52 26 -67 49
-48 72 12 15 51 14 103 -2 16 -5 23 0 31 24 11 27 10 30 -15 40 -48 19 -95 21
-136 6z"/>
<path d="M2900 1729 c-75 -22 -114 -84 -114 -179 0 -86 25 -136 85 -168 37
-20 54 -23 103 -19 102 9 149 60 154 170 5 121 -46 191 -149 202 -24 2 -60 0
-79 -6z m115 -83 c68 -68 29 -217 -57 -216 -61 1 -88 40 -88 125 0 49 4 60 29
86 37 37 82 39 116 5z"/>
<path d="M510 1550 l0 -180 40 0 40 0 0 180 0 180 -40 0 -40 0 0 -180z"/>
<path d="M680 1551 l0 -181 35 0 35 0 0 133 0 132 76 -132 75 -133 55 0 54 0
0 180 0 180 -40 0 -39 0 -3 -124 -3 -124 -70 121 -71 122 -52 3 -52 3 0 -180z"/>
<path d="M1332 1698 c3 -32 5 -33 51 -36 l47 -3 0 -145 0 -144 40 0 40 0 0
145 0 145 50 0 50 0 0 35 0 35 -141 0 -140 0 3 -32z"/>
<path d="M1660 1550 l0 -180 40 0 40 0 0 180 0 180 -40 0 -40 0 0 -180z"/>
<path d="M1800 1695 c0 -35 0 -35 45 -35 l45 0 0 -145 0 -145 45 0 45 0 0 145
0 145 45 0 c45 0 45 0 45 35 l0 35 -135 0 -135 0 0 -35z"/>
<path d="M2120 1599 c0 -158 11 -192 74 -220 76 -35 165 -17 203 40 21 31 23
45 23 172 l0 139 -40 0 -40 0 0 -133 c0 -149 -7 -167 -66 -167 -63 0 -69 14
-72 164 l-4 136 -39 0 -39 0 0 -131z"/>
<path d="M2472 1698 c3 -32 5 -33 51 -36 l47 -3 0 -145 0 -144 40 0 40 0 0
144 0 145 48 3 c45 3 47 4 50 36 l3 32 -141 0 -141 0 3 -32z"/>
<path d="M765 1287 c-3 -7 -4 -89 -3 -182 l3 -170 38 -3 37 -3 0 70 0 70 63 3
c62 3 62 3 65 36 l3 32 -65 0 -66 0 0 45 0 44 68 3 67 3 0 30 0 30 -103 3
c-78 2 -104 0 -107 -11z"/>
<path d="M1040 1115 l0 -185 105 0 105 0 0 35 0 35 -65 0 -65 0 0 45 0 45 66
0 65 0 -3 33 c-3 32 -3 32 -65 35 l-63 3 0 34 0 35 65 0 65 0 0 35 0 35 -105
0 -105 0 0 -185z"/>
<path d="M1330 1114 l0 -187 88 5 c50 3 100 12 117 21 108 56 129 215 39 299
-37 33 -90 48 -176 48 l-68 0 0 -186z m179 99 c25 -20 43 -85 35 -123 -14 -63
-45 -90 -104 -90 l-30 0 0 115 0 115 39 0 c22 0 48 -8 60 -17z"/>
<path d="M1700 1115 l0 -185 105 0 105 0 0 35 0 35 -65 0 -65 0 0 45 0 45 60
0 60 0 0 35 0 35 -60 0 -60 0 0 35 0 35 65 0 65 0 0 35 0 35 -105 0 -105 0 0
-185z"/>
<path d="M1985 1288 c-3 -7 -4 -90 -3 -183 l3 -170 38 -3 37 -3 0 70 c0 67 1
71 23 71 16 -1 32 -17 63 -68 l40 -67 86 -3 85 -3 13 46 13 46 65 -3 65 -3 15
-42 c13 -41 16 -43 53 -43 21 0 39 3 39 8 0 4 -27 87 -61 185 l-61 177 -48 0
-48 0 -26 -72 c-14 -40 -43 -122 -64 -181 l-38 -108 -47 70 c-52 78 -54 86
-32 95 9 3 23 22 31 43 22 52 6 106 -39 130 -44 23 -194 31 -202 11z m159 -74
c33 -33 6 -74 -50 -74 -34 0 -34 0 -34 45 0 45 0 45 34 45 19 0 42 -7 50 -16z
m330 -58 c9 -27 16 -53 16 -58 0 -4 -18 -8 -40 -8 -22 0 -40 2 -40 5 0 22 35
124 40 118 4 -4 15 -30 24 -57z"/>
<path d="M2670 1115 l0 -185 110 0 110 0 0 35 0 35 -70 0 -70 0 0 150 0 150
-40 0 -40 0 0 -185z"/>
<path d="M1810 645 c0 -122 2 -145 15 -145 12 0 15 14 15 68 0 81 17 112 60
112 39 0 50 -23 50 -109 0 -56 3 -71 15 -71 12 0 15 16 15 85 0 72 -3 88 -20
105 -22 22 -70 26 -101 10 -18 -10 -19 -7 -19 40 0 38 -4 50 -15 50 -13 0 -15
-23 -15 -145z"/>
<path d="M1357 773 c-4 -3 -7 -66 -7 -140 l0 -133 69 0 c85 0 121 22 121 75 0
33 -21 65 -43 65 -7 0 -4 5 6 11 50 29 36 103 -21 119 -42 11 -115 13 -125 3z
m137 -55 c19 -30 -4 -53 -58 -56 l-46 -3 0 41 0 41 46 -3 c31 -2 51 -9 58 -20z
m-4 -108 c24 -24 24 -29 4 -58 -12 -17 -25 -22 -60 -22 l-44 0 0 50 0 50 40 0
c27 0 47 -7 60 -20z"/>
<path d="M2040 760 c0 -15 5 -20 18 -18 9 2 17 10 17 18 0 8 -8 16 -17 18 -13
2 -18 -3 -18 -18z"/>
<path d="M1614 695 c-21 -16 -19 -17 46 -19 38 -1 45 -4 48 -23 3 -18 -3 -23
-35 -28 -62 -10 -88 -27 -91 -62 -2 -18 3 -37 13 -47 19 -19 85 -21 104 -3 11
10 14 10 18 0 3 -7 11 -13 20 -13 13 0 14 15 11 91 -2 76 -6 93 -22 105 -26
18 -87 18 -112 -1z m96 -118 c0 -32 -18 -47 -57 -47 -28 0 -33 3 -33 25 0 28
23 44 63 45 22 0 27 -5 27 -23z"/>
<path d="M2040 606 c0 -100 1 -106 20 -106 20 0 21 5 18 102 -3 89 -5 103 -20
106 -16 3 -18 -7 -18 -102z"/>
<path d="M2168 703 c-10 -2 -18 -11 -18 -19 0 -11 9 -13 42 -8 33 6 44 4 55
-11 19 -28 17 -32 -24 -39 -92 -16 -122 -50 -89 -101 12 -19 25 -25 52 -25 19
0 44 5 55 10 13 7 19 7 19 0 0 -5 7 -10 15 -10 12 0 15 16 15 85 0 72 -3 88
-20 105 -19 19 -60 24 -102 13z m82 -127 c0 -31 -22 -48 -57 -44 -58 7 -32 68
29 68 23 0 28 -4 28 -24z"/>
</g>
</svg>
